<svg width="19" height="15" viewBox="0 0 19 15" fill="none" xmlns="http://www.w3.org/2000/svg">
<path d="M18.7912 3.7395C18.7377 3.35301 18.6579 2.93959 18.5513 2.4997C18.4446 2.05995 18.2865 1.68669 18.0765 1.38003C17.8666 1.07351 17.6315 0.920145 17.3717 0.920145C17.3417 0.790171 17.1967 0.805157 16.9367 0.965174C16.6768 1.12516 16.5551 1.17855 16.572 1.12516C16.5885 1.07179 16.4984 1.13839 16.3019 1.32502C16.1053 1.51165 16.0071 1.60493 16.0071 1.60493L15.7121 1.89975C15.4523 2.1464 15.0741 2.3346 14.5776 2.46454C14.081 2.59473 13.5363 2.67449 12.9432 2.70453C12.35 2.73461 11.7552 2.75464 11.1587 2.76455C10.5622 2.77446 9.96403 2.80453 9.36423 2.85447C8.76443 2.9045 8.28123 2.98945 7.91476 3.10941C7.18824 3.34929 6.50847 3.66761 5.87533 4.06419C5.24216 4.46073 4.67409 4.92394 4.17089 5.45382C3.66773 5.98363 3.27112 6.59845 2.9813 7.29826C2.69152 7.99785 2.54645 8.7311 2.54645 9.4975C2.54645 9.85076 2.57639 10.1973 2.63637 10.5372C2.64971 10.6038 2.70297 10.7505 2.79639 10.9771C2.88974 11.2038 2.93634 11.3303 2.93634 11.3572C2.93634 11.4836 2.83305 11.6438 2.62639 11.8368C2.41977 12.0301 2.19326 12.2168 1.94662 12.3966C1.70004 12.5765 1.4735 12.7948 1.26684 13.0514C1.06039 13.3081 0.957031 13.5531 0.957031 13.7862C0.957031 13.833 0.961933 13.8778 0.972018 13.9213C0.982102 13.9646 0.992151 13.9962 1.0021 14.016C1.01204 14.0362 1.03046 14.0694 1.05703 14.1159C1.08382 14.1625 1.10364 14.1994 1.11705 14.2259C1.23039 14.4191 1.32034 14.5592 1.38694 14.6458C1.45354 14.7323 1.5568 14.8122 1.69682 14.8857C1.83667 14.9589 2.00677 14.9956 2.20664 14.9956C2.40002 14.9956 2.59989 14.8889 2.80654 14.6759C3.01299 14.4627 3.18803 14.2291 3.33131 13.9761C3.47452 13.7229 3.62459 13.4896 3.78114 13.2763C3.93769 13.0632 4.06938 12.9565 4.17597 12.9565C4.32923 12.9565 4.64908 13.0799 5.13565 13.3265C5.62214 13.5732 5.91543 13.7131 6.01539 13.7465C6.93505 14.0597 7.88801 14.2163 8.87445 14.2163C10.3674 14.2163 11.8267 13.8561 13.2531 13.1364C14.7128 12.4101 15.9039 11.5171 16.827 10.4574C17.7501 9.3975 18.3648 8.12149 18.6715 6.62839C18.8045 5.97526 18.8711 5.33218 18.8711 4.69901C18.8711 4.44575 18.8445 4.12585 18.7912 3.7395ZM13.5627 7.12823C13.4361 7.25488 13.2859 7.31822 13.1126 7.31822C11.8997 7.31822 10.8552 7.4915 9.97874 7.83798C9.1025 8.18448 8.20777 8.77101 7.29469 9.59736C7.16156 9.72401 6.93827 9.94387 6.625 10.2571C6.31179 10.5705 6.06511 10.807 5.88528 10.9669C5.74525 11.0935 5.59536 11.1569 5.43534 11.1569C5.26195 11.1569 5.11205 11.0935 4.98537 10.9669C4.85872 10.8406 4.79545 10.6903 4.79545 10.5171C4.79545 10.3571 4.85872 10.2074 4.98537 10.0672C5.79841 9.16745 6.58319 8.43599 7.33965 7.87296C8.09611 7.30988 8.9609 6.86338 9.93392 6.5334C10.9068 6.20345 11.9664 6.03853 13.1127 6.03853C13.2859 6.03853 13.4361 6.10187 13.5627 6.22845C13.6892 6.35524 13.7527 6.50517 13.7527 6.67839C13.7526 6.85165 13.6895 7.00161 13.5627 7.12823Z" fill="#27AE60"/>
</svg>
