<svg width="19" height="19" viewBox="0 0 19 19" fill="none" xmlns="http://www.w3.org/2000/svg">
<path d="M17.6715 5.03436L15.5929 3.83419L14.393 1.75582H11.993L9.91435 0.555649L7.83568 1.75582H5.43569L4.23552 3.8345L2.15721 5.03436V7.43434L0.957031 9.51302L2.15721 11.5917V13.9917L4.23588 15.1918L5.43605 17.2705H7.83604L9.9144 18.4704L11.9931 17.2702H14.3931L15.5932 15.1915L17.6719 13.9914V11.5914L18.8721 9.51271L17.6719 7.43403V5.03436H17.6715ZM9.10591 13.1792C8.93889 13.3462 8.71885 13.4274 8.4998 13.4243C8.28069 13.4274 8.0607 13.3462 7.89368 13.1792L5.27397 10.5595C4.94581 10.2313 4.94581 9.69894 5.27397 9.37077L5.96749 8.67726C6.29565 8.34909 6.82802 8.34909 7.15618 8.67726L8.4998 10.0209L12.6723 5.84805C13.0005 5.51988 13.5328 5.51988 13.861 5.84805L14.5545 6.54156C14.8827 6.86973 14.8827 7.40209 14.5545 7.73026L9.10591 13.1792Z" fill="#27AE60"/>
</svg>
