<svg width="18" height="19" viewBox="0 0 18 19" fill="none" xmlns="http://www.w3.org/2000/svg">
<path d="M8.80607 0.959714C8.79883 0.959714 8.79594 0.959714 8.79304 0.959714C8.78725 0.959714 8.78725 0.959714 8.78581 0.959714C8.78581 0.959714 8.78581 0.959714 8.78364 0.959714C8.78146 0.959714 8.77857 0.959714 8.77568 0.959714C8.77423 0.959714 8.77423 0.959714 8.77423 0.959714C8.77423 0.959714 8.77423 0.959714 8.77133 0.959714C8.7518 0.955372 8.74601 0.958266 8.73153 0.958266C6.41374 0.958266 4.15889 1.87728 2.49236 3.49316L0.660124 1.63269C0.571117 1.54586 0.436521 1.51836 0.326529 1.56467C0.211471 1.61388 0.134766 1.72387 0.134766 1.84978V7.89068C0.134766 8.06073 0.27298 8.19822 0.440863 8.19822H6.40795C6.41156 8.19822 6.41808 8.19822 6.42242 8.19822C6.59175 8.19822 6.72924 8.06146 6.72924 7.89068C6.72924 7.77779 6.66773 7.67793 6.57583 7.6251L4.76602 5.79359C5.83917 4.75734 7.2394 4.19001 8.77495 4.19001C11.9083 4.21028 14.4605 6.77556 14.4605 9.96099C14.4367 13.0914 11.8699 15.6393 8.68594 15.6393L8.69318 18.8725H8.73732C13.6428 18.8725 17.6619 14.8795 17.6937 9.91685C17.6937 5.01423 13.7109 1.00096 8.80607 0.959714Z" fill="#27AE60"/>
</svg>
